<?xml version="1.0" encoding="utf-8"?>
<!-- Generator: Adobe Illustrator 26.0.3, SVG Export Plug-In . SVG Version: 6.00 Build 0)  -->
<svg version="1.1" id="Слой_1" xmlns="http://www.w3.org/2000/svg" xmlns:xlink="http://www.w3.org/1999/xlink" x="0px" y="0px"
	 viewBox="0 0 1256.2 458.3" style="enable-background:new 0 0 1256.2 458.3;" xml:space="preserve">
<style type="text/css">
	.st0{fill:#EDEDED;}
	.st1{fill:url(#SVGID_1_);}
	.st2{fill:url(#SVGID_00000092429198079813908950000000235984657815252654_);}
	.st3{fill:url(#SVGID_00000005226724503402687980000014023793921907877302_);}
	.st4{fill:url(#SVGID_00000062881637374865614320000007820882123995743924_);}
	.st5{fill:url(#SVGID_00000145020365517422377690000000138158421795279248_);}
	.st6{fill:url(#SVGID_00000008855623499108067500000007510792181532428958_);}
	.st7{fill:url(#SVGID_00000127743654243085675270000005242278344778041230_);}
	.st8{fill:url(#SVGID_00000059990368970560056080000012806133055989178302_);}
	.st9{fill:url(#SVGID_00000032639630483677315310000017127386795853042102_);}
	.st10{fill:url(#SVGID_00000072992616156727128800000001087565901328660361_);}
</style>
<g>
	<path d="M282.6,232H48.6c-11.6,0-21.1-9.4-21.1-21.1V48.1c0-11.6,9.4-21.1,21.1-21.1h234.1c11.6,0,21.1,9.4,21.1,21.1V211
		C303.7,222.6,294.3,232,282.6,232z"/>
	<path d="M282.6,443.3H48.6c-11.6,0-21.1-9.4-21.1-21.1V259.4c0-11.6,9.4-21.1,21.1-21.1h234.1c11.6,0,21.1,9.4,21.1,21.1v162.9
		C303.7,433.9,294.3,443.3,282.6,443.3z"/>
	<path d="M594.8,232H360.8c-11.6,0-21.1-9.4-21.1-21.1V48.1c0-11.6,9.4-21.1,21.1-21.1h234.1c11.6,0,21.1,9.4,21.1,21.1V211
		C615.9,222.6,606.5,232,594.8,232z"/>
	<path d="M594.8,443.3H360.8c-11.6,0-21.1-9.4-21.1-21.1V259.4c0-11.6,9.4-21.1,21.1-21.1h234.1c11.6,0,21.1,9.4,21.1,21.1v162.9
		C615.9,433.9,606.5,443.3,594.8,443.3z"/>
	<rect x="334.2" y="204.7" class="st0" width="21.9" height="24.3"/>
	<rect x="334.2" y="243" class="st0" width="21.9" height="24.3"/>
	<rect x="590.9" y="204.7" class="st0" width="21.9" height="24.3"/>
	<rect x="590.9" y="243" class="st0" width="21.9" height="24.3"/>
	<path d="M901.5,232H667.5c-11.6,0-21.1-9.4-21.1-21.1V48.1c0-11.6,9.4-21.1,21.1-21.1h234.1c11.6,0,21.1,9.4,21.1,21.1V211
		C922.6,222.6,913.2,232,901.5,232z"/>
	<path d="M901.5,443.3H667.5c-11.6,0-21.1-9.4-21.1-21.1V259.4c0-11.6,9.4-21.1,21.1-21.1h234.1c11.6,0,21.1,9.4,21.1,21.1v162.9
		C922.6,433.9,913.2,443.3,901.5,443.3z"/>
	<rect x="640.9" y="204.7" class="st0" width="21.9" height="24.3"/>
	<rect x="640.9" y="243" class="st0" width="21.9" height="24.3"/>
	<rect x="897.6" y="204.7" class="st0" width="21.9" height="24.3"/>
	<rect x="897.6" y="243" class="st0" width="21.9" height="24.3"/>
	<path d="M1208.3,232H974.2c-11.6,0-21.1-9.4-21.1-21.1V48.1c0-11.6,9.4-21.1,21.1-21.1h234.1c11.6,0,21.1,9.4,21.1,21.1V211
		C1229.3,222.6,1219.9,232,1208.3,232z"/>
	<path d="M1208.3,443.3H974.2c-11.6,0-21.1-9.4-21.1-21.1V259.4c0-11.6,9.4-21.1,21.1-21.1h234.1c11.6,0,21.1,9.4,21.1,21.1v162.9
		C1229.3,433.9,1219.9,443.3,1208.3,443.3z"/>
	<rect x="947.7" y="204.7" class="st0" width="21.9" height="24.3"/>
	<rect x="947.7" y="243" class="st0" width="21.9" height="24.3"/>
	<rect x="1204.3" y="204.7" class="st0" width="21.9" height="24.3"/>
	<rect x="1204.3" y="243" class="st0" width="21.9" height="24.3"/>
	<rect x="24.3" y="204.7" class="st0" width="21.9" height="24.3"/>
	<rect x="24.3" y="243" class="st0" width="21.9" height="24.3"/>
	<rect x="281" y="204.7" class="st0" width="21.9" height="24.3"/>
	<rect x="281" y="243" class="st0" width="21.9" height="24.3"/>
</g>
<g>
	<linearGradient id="SVGID_1_" gradientUnits="userSpaceOnUse" x1="-283.8859" y1="-415.3405" x2="-283.8859" y2="-679.8102">
		<stop  offset="0" style="stop-color:#EDEDED"/>
		<stop  offset="0.1394" style="stop-color:#EBEBEB"/>
		<stop  offset="0.2133" style="stop-color:#E5E5E5"/>
		<stop  offset="0.2718" style="stop-color:#DBDBDB"/>
		<stop  offset="0.3222" style="stop-color:#CDCCCC"/>
		<stop  offset="0.3675" style="stop-color:#B9B9B9"/>
		<stop  offset="0.409" style="stop-color:#A0A09F"/>
		<stop  offset="0.4477" style="stop-color:#818080"/>
		<stop  offset="0.4832" style="stop-color:#5A5959"/>
		<stop  offset="0.504" style="stop-color:#3C3C3B"/>
		<stop  offset="0.5272" style="stop-color:#5F5F5E"/>
		<stop  offset="0.5594" style="stop-color:#858484"/>
		<stop  offset="0.5948" style="stop-color:#A3A3A2"/>
		<stop  offset="0.633" style="stop-color:#BBBBBB"/>
		<stop  offset="0.6751" style="stop-color:#CECECD"/>
		<stop  offset="0.7225" style="stop-color:#DCDCDC"/>
		<stop  offset="0.7784" style="stop-color:#E6E5E5"/>
		<stop  offset="0.8509" style="stop-color:#EBEBEB"/>
		<stop  offset="1" style="stop-color:#EDEDED"/>
	</linearGradient>
	<path class="st1" d="M-287.8-679.8c21.4,0,39.2,4.8,53.5,14.4c14.3,9.6,25.1,24.1,32.4,43.4c7.3,19.3,10.9,43.8,10.9,73.3
		c0,31.9-4.3,57.6-12.8,77.2c-8.5,19.6-20.1,33.8-34.8,42.8c-14.7,8.9-31.1,13.4-49.3,13.4c-19.8,0-37.1-4.3-51.8-13
		c-14.8-8.7-25.9-22.8-33.4-42.2l61.7-26.4c1.4,7.5,4,13.3,8,17.3c4,4,9.5,6,16.5,6c5.5,0,10.3-1.2,14.5-3.7
		c4.2-2.5,7.8-6.1,10.7-10.9c3-4.8,5.2-10.8,6.7-18.1c1.5-7.3,2.2-15.7,2.2-25.3c0-1.3,0-2.5,0-3.5c0-1,0-2.3,0-3.9h-1.4
		c-2.3,6.2-6,11.5-11.3,15.8c-5.2,4.3-11.3,7.5-18.1,9.7c-6.8,2.2-14,3.3-21.5,3.3c-13.9,0-26.2-3.3-37-9.9
		c-10.8-6.6-19.3-15.9-25.6-28c-6.3-12.1-9.4-26.1-9.4-42.2c0-18.7,3.8-34.6,11.3-47.8c7.5-13.2,18-23.5,31.4-30.7
		C-320.8-676.2-305.3-679.8-287.8-679.8z M-287.8-620.7c-7.7,0-14,2.5-18.8,7.4c-4.8,4.9-7.2,11.9-7.2,21c0,8.6,2.4,15.2,7.3,19.8
		c4.9,4.7,11.1,7,18.6,7c5,0,9.4-1.1,13.3-3.3c3.9-2.2,7-5.4,9.4-9.5c2.4-4.1,3.6-9.1,3.6-14.8c0-5.7-1.2-10.6-3.6-14.8
		c-2.4-4.1-5.5-7.3-9.4-9.5C-278.4-619.6-282.8-620.7-287.8-620.7z"/>
</g>
<text transform="matrix(0.9479 0 0 1 -495.8737 76.9589)" style="font-family:'WorkSans-ExtraBold'; font-size:388.9256px;">9 </text>
<g>
	
		<linearGradient id="SVGID_00000093878230644284173270000006302869403063876788_" gradientUnits="userSpaceOnUse" x1="148.0984" y1="352.5425" x2="148.0984" y2="99.251">
		<stop  offset="0" style="stop-color:#EDEDED"/>
		<stop  offset="0.1394" style="stop-color:#EBEBEB"/>
		<stop  offset="0.2133" style="stop-color:#E5E5E5"/>
		<stop  offset="0.2718" style="stop-color:#DBDBDB"/>
		<stop  offset="0.3222" style="stop-color:#CDCCCC"/>
		<stop  offset="0.3675" style="stop-color:#B9B9B9"/>
		<stop  offset="0.409" style="stop-color:#A0A09F"/>
		<stop  offset="0.4477" style="stop-color:#818080"/>
		<stop  offset="0.4832" style="stop-color:#5A5959"/>
		<stop  offset="0.504" style="stop-color:#3C3C3B"/>
		<stop  offset="0.5272" style="stop-color:#5F5F5E"/>
		<stop  offset="0.5594" style="stop-color:#858484"/>
		<stop  offset="0.5948" style="stop-color:#A3A3A2"/>
		<stop  offset="0.633" style="stop-color:#BBBBBB"/>
		<stop  offset="0.6751" style="stop-color:#CECECD"/>
		<stop  offset="0.7225" style="stop-color:#DCDCDC"/>
		<stop  offset="0.7784" style="stop-color:#E6E5E5"/>
		<stop  offset="0.8509" style="stop-color:#EBEBEB"/>
		<stop  offset="1" style="stop-color:#EDEDED"/>
	</linearGradient>
	<path style="fill:url(#SVGID_00000093878230644284173270000006302869403063876788_);" d="M214.7,352.5H154V159l-72.4,18.6v-40.8
		l126.6-37.5h6.5V352.5z"/>
</g>
<g>
	
		<linearGradient id="SVGID_00000023983356573791955070000011035921471857822884_" gradientUnits="userSpaceOnUse" x1="762.1336" y1="364.9549" x2="762.1336" y2="111.6634">
		<stop  offset="0" style="stop-color:#EDEDED"/>
		<stop  offset="0.1394" style="stop-color:#EBEBEB"/>
		<stop  offset="0.2133" style="stop-color:#E5E5E5"/>
		<stop  offset="0.2718" style="stop-color:#DBDBDB"/>
		<stop  offset="0.3222" style="stop-color:#CDCCCC"/>
		<stop  offset="0.3675" style="stop-color:#B9B9B9"/>
		<stop  offset="0.409" style="stop-color:#A0A09F"/>
		<stop  offset="0.4477" style="stop-color:#818080"/>
		<stop  offset="0.4832" style="stop-color:#5A5959"/>
		<stop  offset="0.504" style="stop-color:#3C3C3B"/>
		<stop  offset="0.5272" style="stop-color:#5F5F5E"/>
		<stop  offset="0.5594" style="stop-color:#858484"/>
		<stop  offset="0.5948" style="stop-color:#A3A3A2"/>
		<stop  offset="0.633" style="stop-color:#BBBBBB"/>
		<stop  offset="0.6751" style="stop-color:#CECECD"/>
		<stop  offset="0.7225" style="stop-color:#DCDCDC"/>
		<stop  offset="0.7784" style="stop-color:#E6E5E5"/>
		<stop  offset="0.8509" style="stop-color:#EBEBEB"/>
		<stop  offset="1" style="stop-color:#EDEDED"/>
	</linearGradient>
	<path style="fill:url(#SVGID_00000023983356573791955070000011035921471857822884_);" d="M828.7,365H768V171.4L695.6,190v-40.8
		l126.6-37.5h6.5V365z"/>
</g>
<g>
	
		<linearGradient id="SVGID_00000119075379289409726210000000084241991435679418_" gradientUnits="userSpaceOnUse" x1="472.5997" y1="354.9742" x2="472.5997" y2="96.1236">
		<stop  offset="0" style="stop-color:#EDEDED"/>
		<stop  offset="0.1394" style="stop-color:#EBEBEB"/>
		<stop  offset="0.2133" style="stop-color:#E5E5E5"/>
		<stop  offset="0.2718" style="stop-color:#DBDBDB"/>
		<stop  offset="0.3222" style="stop-color:#CDCCCC"/>
		<stop  offset="0.3675" style="stop-color:#B9B9B9"/>
		<stop  offset="0.409" style="stop-color:#A0A09F"/>
		<stop  offset="0.4477" style="stop-color:#818080"/>
		<stop  offset="0.4832" style="stop-color:#5A5959"/>
		<stop  offset="0.504" style="stop-color:#3C3C3B"/>
		<stop  offset="0.5272" style="stop-color:#5F5F5E"/>
		<stop  offset="0.5594" style="stop-color:#858484"/>
		<stop  offset="0.5948" style="stop-color:#A3A3A2"/>
		<stop  offset="0.633" style="stop-color:#BBBBBB"/>
		<stop  offset="0.6751" style="stop-color:#CECECD"/>
		<stop  offset="0.7225" style="stop-color:#DCDCDC"/>
		<stop  offset="0.7784" style="stop-color:#E6E5E5"/>
		<stop  offset="0.8509" style="stop-color:#EBEBEB"/>
		<stop  offset="1" style="stop-color:#EDEDED"/>
	</linearGradient>
	<path style="fill:url(#SVGID_00000119075379289409726210000000084241991435679418_);" d="M512.6,251.4
		c-15.2,12.9-33,19.3-53.3,19.3c-26,0-46.8-7.7-62.4-23c-15.6-15.3-23.4-36-23.4-62.1c0-16.6,4.2-31.8,12.6-45.6
		c8.4-13.8,20.2-24.6,35.2-32.3c15.1-7.7,32-11.6,50.9-11.6c19.4,0,36.6,4.2,51.7,12.5c15.1,8.3,26.8,20.3,35.1,36
		c8.3,15.6,12.6,33.5,12.7,53.7v18.6c0,42.2-12.2,75.3-36.5,99.4c-24.4,24.1-58.9,36.9-103.6,38.6l-14.3,0.2v-41.9l12.9-0.2
		C480.9,311,508.4,290.5,512.6,251.4z M473.6,232.3c9.4,0,17.5-2.1,24.3-6.3c6.8-4.2,11.9-9.2,15.4-15.1v-20.7
		c0-17-3.8-30.2-11.3-39.6c-7.5-9.4-17.6-14.1-30.3-14.1c-11.7,0-21.3,4.6-28.9,13.8c-7.5,9.2-11.3,20.8-11.3,34.7
		c0,13.8,3.7,25.1,11,34C450,227.9,460.3,232.3,473.6,232.3z"/>
</g>
<g>
	
		<linearGradient id="SVGID_00000021814843301507939200000005334812510824594850_" gradientUnits="userSpaceOnUse" x1="782.4966" y1="352.5416" x2="782.4966" y2="96.1236">
		<stop  offset="0" style="stop-color:#EDEDED"/>
		<stop  offset="0.1394" style="stop-color:#EBEBEB"/>
		<stop  offset="0.2133" style="stop-color:#E5E5E5"/>
		<stop  offset="0.2718" style="stop-color:#DBDBDB"/>
		<stop  offset="0.3222" style="stop-color:#CDCCCC"/>
		<stop  offset="0.3675" style="stop-color:#B9B9B9"/>
		<stop  offset="0.409" style="stop-color:#A0A09F"/>
		<stop  offset="0.4477" style="stop-color:#818080"/>
		<stop  offset="0.4832" style="stop-color:#5A5959"/>
		<stop  offset="0.504" style="stop-color:#3C3C3B"/>
		<stop  offset="0.5272" style="stop-color:#5F5F5E"/>
		<stop  offset="0.5594" style="stop-color:#858484"/>
		<stop  offset="0.5948" style="stop-color:#A3A3A2"/>
		<stop  offset="0.633" style="stop-color:#BBBBBB"/>
		<stop  offset="0.6751" style="stop-color:#CECECD"/>
		<stop  offset="0.7225" style="stop-color:#DCDCDC"/>
		<stop  offset="0.7784" style="stop-color:#E6E5E5"/>
		<stop  offset="0.8509" style="stop-color:#EBEBEB"/>
		<stop  offset="1" style="stop-color:#EDEDED"/>
	</linearGradient>
	<path style="fill:url(#SVGID_00000021814843301507939200000005334812510824594850_);" d="M871.8,352.5H698.2v-34.4l81.9-87.2
		c11.2-12.3,19.6-23,25-32.1c5.4-9.1,8.1-17.8,8.1-26.1c0-11.2-2.8-20.1-8.5-26.5c-5.7-6.4-13.8-9.6-24.4-9.6
		c-11.4,0-20.3,3.9-26.9,11.7c-6.6,7.8-9.8,18.1-9.8,30.8h-50.4c0-15.4,3.7-29.5,11-42.2c7.4-12.7,17.8-22.7,31.2-30
		c13.4-7.2,28.7-10.9,45.7-10.9c26.1,0,46.4,6.3,60.8,18.8c14.4,12.5,21.7,30.2,21.7,53c0,12.5-3.2,25.2-9.7,38.2
		c-6.5,13-17.6,28.1-33.4,45.3l-57.6,60.6h108.9V352.5z"/>
</g>
<g>
	
		<linearGradient id="SVGID_00000007420633675196386820000018158254127169848729_" gradientUnits="userSpaceOnUse" x1="168.5831" y1="354.1058" x2="168.5831" y2="97.6878">
		<stop  offset="0" style="stop-color:#EDEDED"/>
		<stop  offset="0.1394" style="stop-color:#EBEBEB"/>
		<stop  offset="0.2133" style="stop-color:#E5E5E5"/>
		<stop  offset="0.2718" style="stop-color:#DBDBDB"/>
		<stop  offset="0.3222" style="stop-color:#CDCCCC"/>
		<stop  offset="0.3675" style="stop-color:#B9B9B9"/>
		<stop  offset="0.409" style="stop-color:#A0A09F"/>
		<stop  offset="0.4477" style="stop-color:#818080"/>
		<stop  offset="0.4832" style="stop-color:#5A5959"/>
		<stop  offset="0.504" style="stop-color:#3C3C3B"/>
		<stop  offset="0.5272" style="stop-color:#5F5F5E"/>
		<stop  offset="0.5594" style="stop-color:#858484"/>
		<stop  offset="0.5948" style="stop-color:#A3A3A2"/>
		<stop  offset="0.633" style="stop-color:#BBBBBB"/>
		<stop  offset="0.6751" style="stop-color:#CECECD"/>
		<stop  offset="0.7225" style="stop-color:#DCDCDC"/>
		<stop  offset="0.7784" style="stop-color:#E6E5E5"/>
		<stop  offset="0.8509" style="stop-color:#EBEBEB"/>
		<stop  offset="1" style="stop-color:#EDEDED"/>
	</linearGradient>
	<path style="fill:url(#SVGID_00000007420633675196386820000018158254127169848729_);" d="M257.9,354.1H84.3v-34.4l81.9-87.2
		c11.2-12.3,19.6-23,25-32.1c5.4-9.1,8.1-17.8,8.1-26.1c0-11.2-2.8-20.1-8.5-26.5c-5.7-6.4-13.8-9.6-24.4-9.6
		c-11.4,0-20.3,3.9-26.9,11.7c-6.6,7.8-9.8,18.1-9.8,30.8H79.3c0-15.4,3.7-29.5,11-42.2c7.4-12.7,17.8-22.7,31.2-30
		c13.4-7.2,28.7-10.9,45.7-10.9c26.1,0,46.4,6.3,60.8,18.8c14.4,12.5,21.7,30.2,21.7,53c0,12.5-3.2,25.2-9.7,38.2
		c-6.5,13-17.6,28.1-33.4,45.3L149,313.6h108.9V354.1z"/>
</g>
<g>
	
		<linearGradient id="SVGID_00000109732945455730891640000000312686355867556275_" gradientUnits="userSpaceOnUse" x1="1087.9248" y1="362.0162" x2="1087.9248" y2="102.1236">
		<stop  offset="0" style="stop-color:#EDEDED"/>
		<stop  offset="0.1394" style="stop-color:#EBEBEB"/>
		<stop  offset="0.2133" style="stop-color:#E5E5E5"/>
		<stop  offset="0.2718" style="stop-color:#DBDBDB"/>
		<stop  offset="0.3222" style="stop-color:#CDCCCC"/>
		<stop  offset="0.3675" style="stop-color:#B9B9B9"/>
		<stop  offset="0.409" style="stop-color:#A0A09F"/>
		<stop  offset="0.4477" style="stop-color:#818080"/>
		<stop  offset="0.4832" style="stop-color:#5A5959"/>
		<stop  offset="0.504" style="stop-color:#3C3C3B"/>
		<stop  offset="0.5272" style="stop-color:#5F5F5E"/>
		<stop  offset="0.5594" style="stop-color:#858484"/>
		<stop  offset="0.5948" style="stop-color:#A3A3A2"/>
		<stop  offset="0.633" style="stop-color:#BBBBBB"/>
		<stop  offset="0.6751" style="stop-color:#CECECD"/>
		<stop  offset="0.7225" style="stop-color:#DCDCDC"/>
		<stop  offset="0.7784" style="stop-color:#E6E5E5"/>
		<stop  offset="0.8509" style="stop-color:#EBEBEB"/>
		<stop  offset="1" style="stop-color:#EDEDED"/>
	</linearGradient>
	<path style="fill:url(#SVGID_00000109732945455730891640000000312686355867556275_);" d="M1178,254c0,35-7.6,61.7-22.9,80.3
		c-15.3,18.5-37.6,27.8-67,27.8c-29,0-51.3-9.1-66.6-27.3c-15.4-18.2-23.2-44.2-23.6-78.2V210c0-35.3,7.7-62.1,23.2-80.4
		c15.4-18.3,37.7-27.4,66.7-27.4c29,0,51.3,9.1,66.6,27.2c15.4,18.1,23.2,44.2,23.6,78.1V254z M1125.1,202.8c0-21-3-36.3-9.1-45.8
		c-6-9.6-15.5-14.3-28.3-14.3c-12.4,0-21.6,4.6-27.6,13.7c-5.9,9.1-9.1,23.3-9.4,42.7v61.6c0,20.6,3,36,8.9,46
		c5.9,10,15.4,15,28.5,15c12.9,0,22.3-4.8,28-14.4c5.7-9.6,8.7-24.3,9-44.2V202.8z"/>
</g>
<g>
	
		<linearGradient id="SVGID_00000013192986977152800210000004094747828394078129_" gradientUnits="userSpaceOnUse" x1="472.5997" y1="358.8658" x2="472.5997" y2="98.9732">
		<stop  offset="0" style="stop-color:#EDEDED"/>
		<stop  offset="0.1394" style="stop-color:#EBEBEB"/>
		<stop  offset="0.2133" style="stop-color:#E5E5E5"/>
		<stop  offset="0.2718" style="stop-color:#DBDBDB"/>
		<stop  offset="0.3222" style="stop-color:#CDCCCC"/>
		<stop  offset="0.3675" style="stop-color:#B9B9B9"/>
		<stop  offset="0.409" style="stop-color:#A0A09F"/>
		<stop  offset="0.4477" style="stop-color:#818080"/>
		<stop  offset="0.4832" style="stop-color:#5A5959"/>
		<stop  offset="0.504" style="stop-color:#3C3C3B"/>
		<stop  offset="0.5272" style="stop-color:#5F5F5E"/>
		<stop  offset="0.5594" style="stop-color:#858484"/>
		<stop  offset="0.5948" style="stop-color:#A3A3A2"/>
		<stop  offset="0.633" style="stop-color:#BBBBBB"/>
		<stop  offset="0.6751" style="stop-color:#CECECD"/>
		<stop  offset="0.7225" style="stop-color:#DCDCDC"/>
		<stop  offset="0.7784" style="stop-color:#E6E5E5"/>
		<stop  offset="0.8509" style="stop-color:#EBEBEB"/>
		<stop  offset="1" style="stop-color:#EDEDED"/>
	</linearGradient>
	<path style="fill:url(#SVGID_00000013192986977152800210000004094747828394078129_);" d="M562.7,250.8c0,35-7.6,61.7-22.9,80.3
		c-15.3,18.5-37.6,27.8-67,27.8c-29,0-51.3-9.1-66.6-27.3c-15.4-18.2-23.2-44.2-23.6-78.2v-46.6c0-35.3,7.7-62.1,23.2-80.4
		c15.4-18.3,37.7-27.4,66.7-27.4c29,0,51.3,9.1,66.6,27.2c15.4,18.1,23.2,44.2,23.6,78.1V250.8z M509.8,199.6c0-21-3-36.3-9.1-45.8
		c-6-9.6-15.5-14.3-28.3-14.3c-12.4,0-21.6,4.6-27.6,13.7c-5.9,9.1-9.1,23.3-9.4,42.7v61.6c0,20.6,3,36,8.9,46
		c5.9,10,15.4,15,28.5,15c12.9,0,22.3-4.8,28-14.4c5.7-9.6,8.7-24.3,9-44.2V199.6z"/>
</g>
<text transform="matrix(1.2086 0 0 1 -1404.387 727.4857)" style="fill:#E6007E; font-family:'Roboto-Bold'; font-size:355.7892px;">1</text>
<text transform="matrix(1.1621 0 0 1 -1075.7347 727.4852)" style="fill:#E6007E; font-family:'Roboto-Bold'; font-size:355.7892px;">9</text>
<text transform="matrix(1.0012 0 0 1 -750.8401 727.4852)" style="fill:#E6007E; font-family:'Roboto-Bold'; font-size:355.7892px;">2</text>
<text transform="matrix(1.0537 0 0 1 -451.3782 733.4852)" style="fill:#E6007E; font-family:'Roboto-Bold'; font-size:355.7892px;">0</text>
<g>
	
		<linearGradient id="SVGID_00000098218234872355622790000016041878649505565091_" gradientUnits="userSpaceOnUse" x1="777.5862" y1="365.0508" x2="777.5862" y2="105.1573">
		<stop  offset="0" style="stop-color:#EDEDED"/>
		<stop  offset="0.1394" style="stop-color:#EBEBEB"/>
		<stop  offset="0.2133" style="stop-color:#E5E5E5"/>
		<stop  offset="0.2718" style="stop-color:#DBDBDB"/>
		<stop  offset="0.3222" style="stop-color:#CDCCCC"/>
		<stop  offset="0.3675" style="stop-color:#B9B9B9"/>
		<stop  offset="0.409" style="stop-color:#A0A09F"/>
		<stop  offset="0.4477" style="stop-color:#818080"/>
		<stop  offset="0.4832" style="stop-color:#5A5959"/>
		<stop  offset="0.504" style="stop-color:#3C3C3B"/>
		<stop  offset="0.5272" style="stop-color:#5F5F5E"/>
		<stop  offset="0.5594" style="stop-color:#858484"/>
		<stop  offset="0.5948" style="stop-color:#A3A3A2"/>
		<stop  offset="0.633" style="stop-color:#BBBBBB"/>
		<stop  offset="0.6751" style="stop-color:#CECECD"/>
		<stop  offset="0.7225" style="stop-color:#DCDCDC"/>
		<stop  offset="0.7784" style="stop-color:#E6E5E5"/>
		<stop  offset="0.8509" style="stop-color:#EBEBEB"/>
		<stop  offset="1" style="stop-color:#EDEDED"/>
	</linearGradient>
	<path style="fill:url(#SVGID_00000098218234872355622790000016041878649505565091_);" d="M862,175.9c0,12.3-3.2,23.2-9.7,32.7
		c-6.5,9.5-15.4,17.1-26.7,22.8c12.9,5.9,23.2,14,30.8,24.4c7.6,10.4,11.3,22.6,11.3,36.6c0,22.5-8.1,40.2-24.2,53.2
		c-16.1,13-38,19.5-65.7,19.5c-27.7,0-49.7-6.5-65.9-19.6c-16.2-13.1-24.3-30.8-24.3-53.2c0-14,3.8-26.2,11.3-36.7
		c7.6-10.4,17.8-18.5,30.6-24.3c-11.3-5.7-20.2-13.3-26.6-22.8c-6.4-9.5-9.6-20.4-9.6-32.7c0-21.5,7.6-38.7,22.7-51.5
		c15.1-12.8,35.7-19.2,61.7-19.2c25.9,0,46.4,6.3,61.6,19C854.4,136.9,862,154.1,862,175.9z M814.6,288.6c0-11-3.4-19.8-10.1-26.4
		c-6.7-6.6-15.7-9.9-27.1-9.9c-11.2,0-20.2,3.3-26.9,9.8c-6.7,6.5-10.1,15.4-10.1,26.5c0,10.8,3.3,19.5,9.9,26.1s15.7,9.9,27.5,9.9
		c11.5,0,20.5-3.2,27-9.6C811.3,308.6,814.6,299.8,814.6,288.6z M809.1,178.3c0-9.8-2.7-17.7-8.2-23.7c-5.5-6-13.2-8.9-23.2-8.9
		c-9.9,0-17.6,2.9-23.1,8.7c-5.5,5.8-8.2,13.8-8.2,24c0,10.1,2.7,18.2,8.2,24.3c5.5,6.1,13.2,9.2,23.2,9.2c10,0,17.7-3.1,23.2-9.2
		C806.4,196.5,809.1,188.4,809.1,178.3z"/>
</g>
<g>
	
		<linearGradient id="SVGID_00000171719988490197766190000016114797853294705841_" gradientUnits="userSpaceOnUse" x1="785.7315" y1="362.7921" x2="785.7315" y2="106.3731">
		<stop  offset="0" style="stop-color:#EDEDED"/>
		<stop  offset="0.1394" style="stop-color:#EBEBEB"/>
		<stop  offset="0.2133" style="stop-color:#E5E5E5"/>
		<stop  offset="0.2718" style="stop-color:#DBDBDB"/>
		<stop  offset="0.3222" style="stop-color:#CDCCCC"/>
		<stop  offset="0.3675" style="stop-color:#B9B9B9"/>
		<stop  offset="0.409" style="stop-color:#A0A09F"/>
		<stop  offset="0.4477" style="stop-color:#818080"/>
		<stop  offset="0.4832" style="stop-color:#5A5959"/>
		<stop  offset="0.504" style="stop-color:#3C3C3B"/>
		<stop  offset="0.5272" style="stop-color:#5F5F5E"/>
		<stop  offset="0.5594" style="stop-color:#858484"/>
		<stop  offset="0.5948" style="stop-color:#A3A3A2"/>
		<stop  offset="0.633" style="stop-color:#BBBBBB"/>
		<stop  offset="0.6751" style="stop-color:#CECECD"/>
		<stop  offset="0.7225" style="stop-color:#DCDCDC"/>
		<stop  offset="0.7784" style="stop-color:#E6E5E5"/>
		<stop  offset="0.8509" style="stop-color:#EBEBEB"/>
		<stop  offset="1" style="stop-color:#EDEDED"/>
	</linearGradient>
	<path style="fill:url(#SVGID_00000171719988490197766190000016114797853294705841_);" d="M702.3,234.9l15.4-128.6h149.4v41.9h-106
		l-6.6,54.4c12.6-6.4,25.9-9.6,40.1-9.6c25.4,0,45.3,7.5,59.7,22.4c14.4,14.9,21.6,35.8,21.6,62.7c0,16.3-3.6,31-10.9,43.9
		c-7.3,12.9-17.7,22.9-31.2,30.1c-13.5,7.1-29.5,10.7-48,10.7c-16.1,0-31.1-3.1-44.8-9.3c-13.8-6.2-24.7-14.9-32.7-26.1
		c-8-11.2-12.2-24-12.7-38.4h52.4c1.1,10.5,5,18.7,11.6,24.6c6.6,5.8,15.3,8.8,26.1,8.8c12,0,21.2-4.1,27.6-12.2
		c6.5-8.2,9.7-19.7,9.7-34.7c0-14.4-3.7-25.4-11.2-33c-7.4-7.6-18-11.5-31.7-11.5c-12.6,0-22.8,3.1-30.6,9.4l-5.1,4.5L702.3,234.9z"
		/>
</g>
</svg>
